<svg width="65" height="83" viewBox="0 0 65 83" fill="none" xmlns="http://www.w3.org/2000/svg">
<path d="M64 21.6719V77C64 79.7614 61.7614 82 59 82H6C3.23858 82 1 79.7614 1 77V6C1 3.23858 3.23858 1 6 1H41.5M64 21.6719L41.5 1M64 21.6719H46.5C43.7386 21.6719 41.5 19.4333 41.5 16.6719V1" stroke="white" stroke-width="2"/>
<path d="M17.3317 55V43.3636H21.9226C22.8052 43.3636 23.5571 43.5322 24.1783 43.8693C24.7995 44.2027 25.273 44.6667 25.5987 45.2614C25.9283 45.8523 26.093 46.5341 26.093 47.3068C26.093 48.0795 25.9264 48.7614 25.593 49.3523C25.2597 49.9432 24.7768 50.4034 24.1442 50.733C23.5154 51.0625 22.754 51.2273 21.8601 51.2273H18.9339V49.2557H21.4624C21.9358 49.2557 22.326 49.1742 22.6328 49.0114C22.9434 48.8447 23.1745 48.6155 23.326 48.3239C23.4813 48.0284 23.5589 47.6894 23.5589 47.3068C23.5589 46.9205 23.4813 46.5833 23.326 46.2955C23.1745 46.0038 22.9434 45.7784 22.6328 45.6193C22.3222 45.4564 21.9283 45.375 21.451 45.375H19.7919V55H17.3317ZM31.8161 55H27.6911V43.3636H31.8501C33.0206 43.3636 34.0282 43.5966 34.8729 44.0625C35.7176 44.5246 36.3672 45.1894 36.8217 46.0568C37.2801 46.9242 37.5092 47.9621 37.5092 49.1705C37.5092 50.3826 37.2801 51.4242 36.8217 52.2955C36.3672 53.1667 35.7138 53.8352 34.8615 54.3011C34.013 54.767 32.9979 55 31.8161 55ZM30.1513 52.892H31.7138C32.4411 52.892 33.0528 52.7633 33.549 52.5057C34.049 52.2443 34.424 51.8409 34.674 51.2955C34.9278 50.7462 35.0547 50.0379 35.0547 49.1705C35.0547 48.3106 34.9278 47.608 34.674 47.0625C34.424 46.517 34.0509 46.1155 33.5547 45.858C33.0585 45.6004 32.4467 45.4716 31.7195 45.4716H30.1513V52.892ZM39.3317 55V43.3636H47.0362V45.392H41.7919V48.1648H46.5249V50.1932H41.7919V55H39.3317Z" fill="white"/>
</svg>
